<svg width="33" height="33" viewBox="0 0 33 33" fill="none" xmlns="http://www.w3.org/2000/svg">
<path d="M10.0911 13.8669L16.4999 7.458L22.9118 13.8696L26.6408 10.1406L16.4999 0L6.36237 10.1376L10.0912 13.8666L10.0911 13.8669ZM0 16.5L3.72912 12.7703L7.45797 16.4992L3.72885 20.2283L0 16.5ZM10.0911 19.1335L16.4999 25.542L22.9117 19.1305L26.6426 22.8575L26.6408 22.8595L16.4999 33L6.36237 22.8624L6.35709 22.8571L10.0915 19.1331L10.0911 19.1335ZM25.5419 16.5016L29.271 12.7725L32.9999 16.5013L29.2709 20.2305L25.5419 16.5016Z" fill="#F3BA2F"/>
<path d="M20.282 16.498H20.2836L16.5 12.7141L13.7033 15.51L13.382 15.8314L12.7194 16.4942L12.7141 16.4993L12.7194 16.5048L16.5 20.2859L20.2839 16.502L20.2857 16.4999L20.2823 16.498" fill="#F3BA2F"/>
</svg>
