<svg width="33" height="33" viewBox="0 0 33 33" fill="none" xmlns="http://www.w3.org/2000/svg">
<path d="M16.4999 30.2501C10.9361 30.2533 5.91861 26.9031 3.78897 21.763C1.65933 16.6228 2.8373 10.7059 6.77318 6.77325C10.2482 3.29822 15.3132 1.94107 20.0602 3.21302C24.8071 4.48497 28.515 8.19278 29.7869 12.9398C31.0589 17.6867 29.7017 22.7517 26.2267 26.2268C23.6519 28.8131 20.1494 30.2619 16.4999 30.2501ZM5.49993 16.7365C5.56499 22.7882 10.5064 27.6506 16.5584 27.6183C22.6104 27.5856 27.4993 22.6703 27.4993 16.6182C27.4993 10.5662 22.6104 5.65094 16.5584 5.61825C10.5064 5.58588 5.56499 10.4483 5.49993 16.5V16.7365ZM12.9373 22L10.9999 20.0613L14.5612 16.5L10.9999 12.9388L12.9387 11L16.4999 14.5613L20.0612 11L21.9999 12.9388L18.4387 16.5L21.9999 20.0613L20.0626 22L16.4999 18.4388L12.9387 22H12.9373Z" fill="#BDBDBD"/>
</svg>
