<svg width="33" height="33" viewBox="0 0 33 33" fill="none" xmlns="http://www.w3.org/2000/svg">
<g clip-path="url(#clip0)">
<path d="M32.8251 24.0898C32.7851 24.0037 32.7479 23.9322 32.7132 23.875C32.1407 22.8438 31.0466 21.5781 29.4315 20.0776L29.3974 20.0432L29.3803 20.0263L29.363 20.0091H29.3457C28.6127 19.3103 28.1486 18.8405 27.9542 18.6C27.5985 18.1418 27.5188 17.678 27.7132 17.208C27.8506 16.853 28.3664 16.1031 29.2596 14.9575C29.7294 14.3503 30.1015 13.8637 30.3763 13.4971C32.3581 10.8624 33.2173 9.17884 32.9537 8.44568L32.8513 8.27434C32.7825 8.1712 32.605 8.07683 32.319 7.99078C32.0323 7.9049 31.6658 7.8907 31.219 7.94793L26.2708 7.98211C26.1906 7.95371 26.0762 7.95635 25.927 7.99078C25.7781 8.0252 25.7036 8.04247 25.7036 8.04247L25.6175 8.0855L25.5491 8.13719C25.4918 8.17138 25.4288 8.2315 25.36 8.31743C25.2916 8.40307 25.2344 8.50357 25.1886 8.61809C24.6499 10.0041 24.0374 11.2927 23.35 12.4839C22.9261 13.1942 22.5369 13.8098 22.1814 14.331C21.8264 14.852 21.5286 15.2359 21.2882 15.482C21.0475 15.7283 20.8302 15.9256 20.6351 16.0747C20.4403 16.2238 20.2916 16.2868 20.1887 16.2638C20.0854 16.2407 19.9883 16.2179 19.8962 16.195C19.736 16.0919 19.6071 15.9516 19.5099 15.7741C19.4123 15.5965 19.3466 15.3731 19.3122 15.1039C19.278 14.8345 19.2578 14.6028 19.252 14.408C19.2467 14.2135 19.2491 13.9383 19.2607 13.5832C19.2727 13.228 19.278 12.9876 19.278 12.8616C19.278 12.4263 19.2865 11.9538 19.3035 11.4441C19.3209 10.9343 19.3349 10.5305 19.3466 10.233C19.3583 9.93512 19.3637 9.62002 19.3637 9.28783C19.3637 8.95564 19.3435 8.69512 19.3035 8.50604C19.2641 8.31719 19.2035 8.13389 19.1236 7.95617C19.0433 7.77864 18.9257 7.64131 18.7714 7.54382C18.6168 7.44645 18.4245 7.36918 18.1958 7.31177C17.5887 7.17438 16.8155 7.10006 15.8761 7.0885C13.7456 7.06564 12.3767 7.20321 11.7696 7.50104C11.5291 7.62687 11.3114 7.7988 11.1168 8.01629C10.9106 8.26839 10.8818 8.40596 11.0307 8.42859C11.7181 8.53155 12.2047 8.77787 12.4911 9.16729L12.5943 9.37365C12.6746 9.52253 12.7547 9.78612 12.8349 10.164C12.915 10.542 12.9667 10.96 12.9895 11.418C13.0467 12.2543 13.0467 12.9702 12.9895 13.5658C12.9321 14.1615 12.878 14.6253 12.8263 14.9575C12.7746 15.2897 12.6973 15.5589 12.5943 15.765C12.4911 15.9712 12.4224 16.0972 12.388 16.143C12.3536 16.1887 12.325 16.2175 12.3022 16.2288C12.1533 16.2859 11.9985 16.3149 11.8382 16.3149C11.6777 16.3149 11.4831 16.2347 11.2541 16.0742C11.0251 15.9138 10.7874 15.6934 10.5411 15.4127C10.2948 15.132 10.017 14.7397 9.70764 14.2357C9.3985 13.7318 9.07774 13.1362 8.74555 12.4489L8.47071 11.9505C8.2989 11.6299 8.0642 11.163 7.76637 10.5503C7.46836 9.93741 7.20495 9.34452 6.97597 8.77179C6.88443 8.53125 6.74692 8.34813 6.56368 8.22211L6.47768 8.17041C6.42051 8.12468 6.32873 8.07611 6.20284 8.02436C6.07676 7.97266 5.94521 7.93559 5.80764 7.91278L1.09984 7.94697C0.618767 7.94697 0.292353 8.05595 0.12048 8.27362L0.0516943 8.37659C0.0173317 8.43394 0 8.52553 0 8.65161C0 8.77763 0.0343626 8.93229 0.103148 9.11542C0.7904 10.7306 1.53777 12.2884 2.34526 13.7889C3.15275 15.2894 3.85445 16.4981 4.44993 17.4139C5.04552 18.3304 5.65262 19.1954 6.2712 20.0084C6.88979 20.8217 7.29925 21.343 7.49959 21.5719C7.70017 21.8013 7.85772 21.9729 7.97224 22.0874L8.40187 22.4997C8.67677 22.7746 9.08045 23.1039 9.6131 23.4876C10.1459 23.8715 10.7357 24.2494 11.3829 24.622C12.0302 24.9939 12.7832 25.2975 13.6424 25.5322C14.5014 25.7672 15.3376 25.8615 16.1509 25.8161H18.1268C18.5276 25.7815 18.8312 25.6554 19.0375 25.4379L19.1059 25.3518C19.1519 25.2835 19.1949 25.1772 19.2346 25.0343C19.2748 24.8912 19.2948 24.7334 19.2948 24.5618C19.2831 24.0694 19.3206 23.6256 19.4063 23.2304C19.4919 22.8354 19.5895 22.5376 19.6987 22.337C19.8078 22.1366 19.9309 21.9675 20.0679 21.8304C20.2053 21.693 20.3031 21.6098 20.3605 21.5812C20.4176 21.5523 20.4631 21.5328 20.4975 21.521C20.7724 21.4294 21.0959 21.5181 21.4686 21.7876C21.8409 22.0568 22.1901 22.3891 22.5168 22.7841C22.8432 23.1795 23.2355 23.6231 23.6936 24.1156C24.152 24.6082 24.5528 24.9744 24.8963 25.2153L25.2398 25.4215C25.4692 25.559 25.767 25.685 26.1336 25.7996C26.4996 25.914 26.8202 25.9427 27.0955 25.8854L31.4939 25.8168C31.9289 25.8168 32.2674 25.7448 32.5076 25.6019C32.7482 25.4587 32.8911 25.301 32.9372 25.1294C32.9832 24.9577 32.9856 24.7628 32.9459 24.5449C32.9052 24.3276 32.865 24.1757 32.8251 24.0898Z" fill="black"/>
</g>
<defs>
<clipPath id="clip0">
<rect width="33" height="33" fill="white"/>
</clipPath>
</defs>
</svg>
